{"title":"Prince Of Persia The Sands Of Time (2010) DVDRip XviD-SKITTLES","uid":5782144,"size":738954765,"categoryP":"video","categoryS":"movies","magnet":"?xt=urn:btih:aa92b1def58f792f53c120cacfcd12f9413621ec&amp;dn=Prince+Of+Persia+The+Sands+Of+Time+%282010%29+DVDRip+XviD-SKITTLES&amp;tr=udp%3A%2F%2Ftracker.openbittorrent.com%3A80&amp;tr=udp%3A%2F%2Fopen.demonii.com%3A1337&amp;tr=udp%3A%2F%2Ftracker.coppersurfer.tk%3A6969&amp;tr=udp%3A%2F%2Fexodus.desync.com%3A6969","seeders":0,"leechers":0,"uploader":"TvTeam","files":4,"time":1282462144,"description":". \n  &lt;a href=&quot;\nhttp://www.torrentday.com/&quot; rel=&quot;nofollow&quot; target=&quot;_NEW&quot;&gt;\nhttp://www.torrentday.com/&lt;/a&gt;        :     The Hottest Private Tracker On The Net!!!\n\n\n               www . TorrentDay . Com \n(((((((((((((= Enjoy No RAR releases =))))))))))))))))))))\n\n\n...................................NFO:....................................\n\n.[img]http://leetleech.org/images/86705012011995631333.jpeg[/img]\n\n[b]Crush (2009) DVDRip XviD-SKITTLES[/b]\n\n[img]http://leetleech.org/images/39185456263711143641.png[/img]\n\nVideo\nID                               : 0\nFormat                           : MPEG-4 Visual\nFormat profile                   : Advanced Simple@L5\nFormat settings, BVOP            : Yes\nFormat settings, QPel            : No\nFormat settings, GMC             : No warppoints\nFormat settings, Matrix          : Default (H.263)\nMuxing mode                      : Packed bitstream\nCodec ID                         : XVID\nCodec ID/Hint                    : XviD\nDuration                         : 1h 20mn\nBit rate                         : 1 088 Kbps\nWidth                            : 640 pixels\nHeight                           : 352 pixels\nDisplay aspect ratio             : 16:9\nFrame rate                       : 23.976 fps\nColor space                      : YUV\nChroma subsampling               : 4:2:0\nBit depth                        : 8 bits\nScan type                        : Progressive\nBits/(Pixel*Frame)               : 0.201\nStream size                      : 625 MiB (89%)\nWriting library                  : XviD 1.2.1 (UTC 2008-12-04)\n\nAudio\nID                               : 1\nFormat                           : MPEG Audio\nFormat version                   : Version 1\nFormat profile                   : Layer 3\nMode                             : Joint stereo\nMode extension                   : MS Stereo\nCodec ID                         : 55\nCodec ID/Hint                    : MP3\nDuration                         : 1h 20mn\nBit rate mode                    : Constant\nBit rate                         : 128 Kbps\nChannel(s)                       : 2 channels\nSampling rate                    : 48.0 KHz\nStream size                      : 73.6 MiB (10%)\nAlignment                        : Aligned on interleaves\nInterleave, duration             : 42 ms (1.00 video frame)\nInterleave, preload duration     : 504 ms &lt;a href=&quot;\nhttp://www.imdb.com/title/tt1170350/&quot; rel=&quot;nofollow&quot; target=&quot;_NEW&quot;&gt;\nhttp://www.imdb.com/title/tt1170350/&lt;/a&gt;\n\n[img]http://leetleech.org/images/46941880339015444838.png[/img]\n\nChristopher Egan... \tJulian\nEmma Lung\t... \tAnna\nBrooke Harmon\t... \tClare\nChristian Clark\t... \tWesley\nJenna Lind\t... \tLogan\nKane Manera\t... \tPhil\nElwyn Edwards\t... \tProfessor\nLuke Hewitt\t ... \tRalph\nKerry-Ella McAullay... \tSamantha\nGemma Pranita\t... \tNurse Anna\nHelen Searle\t... \tKelly\nIan Toyne\t... \tHarry\n\n[img]http://leetleech.org/images/70187465700988366433.png[/img]\n\nGenre:\nHorror | Mystery | Thriller \n\nPlot: \nA university student is stalked by an obsessed girl who has \nsupernatural powers.  \n\n[img]http://leetleech.org/images/64476088802225496360.png[/img]\n\n[img]http://leetleech.org/images/84186869361723967286.png[/img]\n[img]http://leetleech.org/images/31445032070815739584.png[/img]\n[img]http://leetleech.org/images/29305751973787121067.png[/img]\n[img]http://leetleech.org/images/35341474486095971123.png[/img]\n[img]http://leetleech.org/images/04779016539416878372.png[/img]\n[img]http://leetleech.org/images/59026215417902865227.png[/img]","torrent":{"xt":"urn:btih:aa92b1def58f792f53c120cacfcd12f9413621ec","amp;dn":"Prince+Of+Persia+The+Sands+Of+Time+%282010%29+DVDRip+XviD-SKITTLES","amp;tr":["udp%3A%2F%2Ftracker.openbittorrent.com%3A80","udp%3A%2F%2Fopen.demonii.com%3A1337","udp%3A%2F%2Ftracker.coppersurfer.tk%3A6969","udp%3A%2F%2Fexodus.desync.com%3A6969"],"infoHash":"aa92b1def58f792f53c120cacfcd12f9413621ec","infoHashBuffer":{"type":"Buffer","data":[170,146,177,222,245,143,121,47,83,193,32,202,207,205,18,249,65,54,33,236]},"announce":[],"urlList":[]}}